<svg width="25" height="24" viewBox="0 0 25 24" fill="none" xmlns="http://www.w3.org/2000/svg">
<path d="M8.66675 12C8.11446 12 7.66675 12.4477 7.66675 13C7.66675 13.5523 8.11446 14 8.66675 14H8.67572C9.228 14 9.67572 13.5523 9.67572 13C9.67572 12.4477 9.228 12 8.67572 12H8.66675Z" fill="#9400D3" style="fill:#9400D3;fill:color(display-p3 0.5804 0.0000 0.8275);fill-opacity:1;"/>
<path d="M12.6623 12C12.11 12 11.6623 12.4477 11.6623 13C11.6623 13.5523 12.11 14 12.6623 14H12.6712C13.2235 14 13.6712 13.5523 13.6712 13C13.6712 12.4477 13.2235 12 12.6712 12H12.6623Z" fill="#9400D3" style="fill:#9400D3;fill:color(display-p3 0.5804 0.0000 0.8275);fill-opacity:1;"/>
<path d="M16.6578 12C16.1055 12 15.6578 12.4477 15.6578 13C15.6578 13.5523 16.1055 14 16.6578 14H16.6667C17.219 14 17.6667 13.5523 17.6667 13C17.6667 12.4477 17.219 12 16.6667 12H16.6578Z" fill="#9400D3" style="fill:#9400D3;fill:color(display-p3 0.5804 0.0000 0.8275);fill-opacity:1;"/>
<path d="M8.66675 16C8.11446 16 7.66675 16.4477 7.66675 17C7.66675 17.5523 8.11446 18 8.66675 18H8.67572C9.228 18 9.67572 17.5523 9.67572 17C9.67572 16.4477 9.228 16 8.67572 16H8.66675Z" fill="#9400D3" style="fill:#9400D3;fill:color(display-p3 0.5804 0.0000 0.8275);fill-opacity:1;"/>
<path d="M12.6623 16C12.11 16 11.6623 16.4477 11.6623 17C11.6623 17.5523 12.11 18 12.6623 18H12.6712C13.2235 18 13.6712 17.5523 13.6712 17C13.6712 16.4477 13.2235 16 12.6712 16H12.6623Z" fill="#9400D3" style="fill:#9400D3;fill:color(display-p3 0.5804 0.0000 0.8275);fill-opacity:1;"/>
<path fill-rule="evenodd" clip-rule="evenodd" d="M7.41675 2C7.41675 1.58579 7.08096 1.25 6.66675 1.25C6.25253 1.25 5.91675 1.58579 5.91675 2V2.63479C5.11199 2.86288 4.43325 3.2336 3.86829 3.84436C3.09038 4.68535 2.7446 5.74792 2.579 7.07951C2.41673 8.3843 2.41674 10.0565 2.41675 12.19V12.81C2.41674 14.9435 2.41673 16.6157 2.579 17.9205C2.7446 19.2521 3.09038 20.3147 3.86829 21.1556C4.65389 22.0049 5.65951 22.3901 6.91803 22.573C8.13607 22.75 9.6923 22.75 11.656 22.75H13.6775C15.6412 22.75 17.1974 22.75 18.4155 22.573C19.674 22.3901 20.6796 22.0049 21.4652 21.1556C22.2431 20.3147 22.5889 19.2521 22.7545 17.9205C22.9168 16.6157 22.9168 14.9435 22.9167 12.8099V12.1901C22.9168 10.0565 22.9168 8.38431 22.7545 7.07951C22.5889 5.74792 22.2431 4.68535 21.4652 3.84436C20.9002 3.2336 20.2215 2.86288 19.4167 2.63479V2C19.4167 1.58579 19.081 1.25 18.6667 1.25C18.2525 1.25 17.9167 1.58579 17.9167 2V2.36589C16.7807 2.24997 15.3827 2.24998 13.6775 2.25H11.656C9.95077 2.24998 8.55281 2.24997 7.41675 2.36589V2ZM5.94535 4.20584C6.03481 4.51998 6.32392 4.75 6.66675 4.75C7.08096 4.75 7.41675 4.41421 7.41675 4V3.87459C8.47775 3.75156 9.84912 3.75 11.7167 3.75H13.6167C15.4844 3.75 16.8557 3.75156 17.9167 3.87459V4C17.9167 4.41421 18.2525 4.75 18.6667 4.75C19.0096 4.75 19.2987 4.51998 19.3881 4.20585C19.7955 4.36791 20.1047 4.58256 20.3641 4.86292C20.8372 5.37439 21.1172 6.07588 21.2649 7.25637C21.2328 7.25217 21.2 7.25 21.1667 7.25H4.16675C4.13347 7.25 4.10069 7.25217 4.06856 7.25637C4.21626 6.07588 4.49634 5.37439 4.96944 4.86292C5.22878 4.58256 5.53804 4.36791 5.94535 4.20584ZM3.95688 8.72024C3.91731 9.68315 3.91675 10.8363 3.91675 12.2432V12.7568C3.91675 14.9551 3.91812 16.5339 4.06753 17.7354C4.21496 18.9208 4.49523 19.6244 4.96944 20.1371C5.43596 20.6414 6.06403 20.9331 7.13379 21.0886C8.23151 21.2481 9.67862 21.25 11.7167 21.25H13.6167C15.6549 21.25 17.102 21.2481 18.1997 21.0886C19.2695 20.9331 19.8975 20.6414 20.3641 20.1371C20.8383 19.6244 21.1185 18.9208 21.266 17.7354C21.4154 16.5339 21.4167 14.9551 21.4167 12.7568V12.2432C21.4167 10.8363 21.4162 9.68315 21.3766 8.72024C21.31 8.73961 21.2396 8.75 21.1667 8.75H4.16675C4.0939 8.75 4.02348 8.73961 3.95688 8.72024Z" fill="#9400D3" style="fill:#9400D3;fill:color(display-p3 0.5804 0.0000 0.8275);fill-opacity:1;"/>
</svg>
