<svg width="22" height="22" viewBox="0 0 22 22" fill="none" xmlns="http://www.w3.org/2000/svg">
<path d="M21.5253 1.53047C21.8183 1.23765 21.8184 0.762779 21.5256 0.469809C21.2328 0.176839 20.7579 0.176714 20.4649 0.469531L16.844 4.0886L16.7446 1.4925C16.7287 1.07859 16.3803 0.75589 15.9664 0.771735C15.5525 0.78758 15.2298 1.13597 15.2457 1.54988L15.3634 4.62489C15.3665 5.13629 15.5253 5.62947 15.895 6.0057C16.2636 6.38081 16.7615 6.55795 17.2869 6.59587L17.3057 6.59699L20.4298 6.74369C20.8435 6.76312 21.1947 6.44345 21.2141 6.02969C21.2336 5.61593 20.9139 5.26477 20.5001 5.24534L17.9293 5.12462L21.5253 1.53047Z" fill="white" style="fill:white;fill-opacity:1;"/>
<path d="M0.25 11.011C0.25 5.07922 5.06371 0.271973 11 0.271973C11.7352 0.271973 12.4541 0.345823 13.1491 0.486753C13.555 0.569072 13.8174 0.964893 13.735 1.37084C13.6527 1.7768 13.2569 2.03915 12.8509 1.95683C12.2535 1.83569 11.6346 1.77197 11 1.77197C5.89059 1.77197 1.75 5.9092 1.75 11.011C1.75 16.1128 5.89059 20.25 11 20.25C16.1094 20.25 20.25 16.1127 20.25 11.011C20.25 10.3773 20.1862 9.75916 20.065 9.16247C19.9826 8.75655 20.2448 8.36064 20.6507 8.2782C21.0566 8.19576 21.4525 8.45799 21.535 8.86392C21.676 9.55821 21.75 10.2764 21.75 11.011C21.75 16.9427 16.9362 21.75 11 21.75C5.06371 21.75 0.25 16.9427 0.25 11.011Z" fill="white" style="fill:white;fill-opacity:1;"/>
<path d="M11 6.26514C11.4142 6.26514 11.75 6.60092 11.75 7.01514V7.34848C12.5384 7.52892 13.2344 7.99343 13.5645 8.69289C13.7412 9.0675 13.5809 9.51447 13.2063 9.69123C12.8316 9.86798 12.3847 9.7076 12.2079 9.33299C12.0908 9.08488 11.6688 8.76404 11 8.76404C10.5941 8.76404 10.2556 8.88824 10.0355 9.05313C9.81557 9.21787 9.75 9.38797 9.75 9.51239C9.75 9.63679 9.81557 9.8069 10.0355 9.97165C10.2556 10.1365 10.5941 10.2607 11 10.2607C11.6987 10.2607 12.3602 10.472 12.8639 10.8494C13.3679 11.2269 13.75 11.806 13.75 12.5091C13.75 13.2122 13.3679 13.7913 12.8639 14.1688C12.5455 14.4074 12.164 14.5796 11.75 14.6739V15.0064C11.75 15.4206 11.4142 15.7564 11 15.7564C10.5858 15.7564 10.25 15.4206 10.25 15.0064V14.673C9.46159 14.4926 8.76556 14.0281 8.43552 13.3286C8.25876 12.954 8.41914 12.507 8.79375 12.3303C9.16835 12.1535 9.61532 12.3139 9.79208 12.6885C9.90916 12.9366 10.3312 13.2575 11 13.2575C11.4059 13.2575 11.7444 13.1333 11.9645 12.9684C12.1844 12.8036 12.25 12.6335 12.25 12.5091C12.25 12.3847 12.1844 12.2146 11.9645 12.0498C11.7444 11.885 11.4059 11.7607 11 11.7607C10.3013 11.7607 9.63984 11.5495 9.13608 11.1721C8.63213 10.7946 8.25 10.2155 8.25 9.51239C8.25 8.80929 8.63213 8.23022 9.13609 7.85266C9.45452 7.6141 9.83597 7.44194 10.25 7.34755V7.01514C10.25 6.60092 10.5858 6.26514 11 6.26514Z" fill="white" style="fill:white;fill-opacity:1;"/>
</svg>
