<svg width="24" height="24" viewBox="0 0 24 24" fill="none" xmlns="http://www.w3.org/2000/svg">
<path d="M1.25 11.9999C1.25 6.06281 6.06294 1.24988 12 1.24988C12.7353 1.24988 13.4542 1.32382 14.1492 1.46491C14.5551 1.54732 14.8174 1.94319 14.735 2.34913C14.6526 2.75506 14.2567 3.01733 13.8508 2.93493C13.2534 2.81366 12.6345 2.74988 12 2.74988C6.89136 2.74988 2.75 6.89124 2.75 11.9999C2.75 17.1085 6.89137 21.2499 12 21.2499C17.1086 21.2499 21.25 17.1085 21.25 11.9999C21.25 11.3654 21.1862 10.7464 21.065 10.149C20.9826 9.74306 21.2449 9.34721 21.6509 9.26485C22.0568 9.1825 22.4527 9.44481 22.535 9.85076C22.676 10.5457 22.75 11.2646 22.75 11.9999C22.75 17.9369 17.937 22.7499 12 22.7499C6.06293 22.7499 1.25 17.9369 1.25 11.9999Z" fill="white" style="fill:white;fill-opacity:1;"/>
<path d="M12 7.24988C12.4142 7.24988 12.75 7.58566 12.75 7.99988V8.33439C13.5387 8.51503 14.2347 8.98014 14.5646 9.68011C14.7412 10.0548 14.5806 10.5017 14.206 10.6783C13.8313 10.8549 13.3844 10.6943 13.2078 10.3196C13.0905 10.0708 12.6683 9.74988 12 9.74988C11.5943 9.74988 11.2559 9.87415 11.0358 10.0392C10.8159 10.2041 10.75 10.3746 10.75 10.4999C10.75 10.6251 10.8159 10.7956 11.0358 10.9605C11.2559 11.1256 11.5943 11.2499 12 11.2499C12.6989 11.2499 13.3605 11.4614 13.8642 11.8392C14.3682 12.2172 14.75 12.7967 14.75 13.4999C14.75 14.2031 14.3682 14.7825 13.8642 15.1605C13.5457 15.3994 13.1642 15.5718 12.75 15.6663V15.9999C12.75 16.4141 12.4142 16.7499 12 16.7499C11.5858 16.7499 11.25 16.4141 11.25 15.9999V15.6654C10.4613 15.4847 9.7653 15.0196 9.43538 14.3196C9.25878 13.945 9.41936 13.4981 9.79404 13.3215C10.1687 13.1449 10.6156 13.3054 10.7922 13.6801C10.9095 13.9289 11.3317 14.2499 12 14.2499C12.4057 14.2499 12.7441 14.1256 12.9642 13.9605C13.1841 13.7956 13.25 13.6251 13.25 13.4999C13.25 13.3747 13.1841 13.2041 12.9642 13.0392C12.7441 12.8742 12.4057 12.7499 12 12.7499C11.3011 12.7499 10.6395 12.5384 10.1358 12.1605C9.63178 11.7825 9.25 11.2031 9.25 10.4999C9.25 9.79668 9.63177 9.21722 10.1358 8.83922C10.4543 8.60035 10.8358 8.42796 11.25 8.33346V7.99988C11.25 7.58566 11.5858 7.24988 12 7.24988Z" fill="white" style="fill:white;fill-opacity:1;"/>
<path d="M16.4676 6.47165C16.1748 6.76463 16.1749 7.2395 16.4679 7.53231C16.7608 7.82512 17.2357 7.82499 17.5285 7.53201L21.1492 3.90927L21.2486 6.50873C21.2644 6.92264 21.6128 7.24535 22.0267 7.22952C22.4406 7.2137 22.7633 6.86532 22.7475 6.45141L22.6298 3.37299C22.6266 2.86142 22.468 2.368 22.0985 1.9915C21.7299 1.61603 21.2319 1.43862 20.7063 1.40064L20.6875 1.39951L17.5634 1.25266C17.1497 1.23321 16.7985 1.55286 16.779 1.96661C16.7596 2.38037 17.0792 2.73155 17.493 2.751L20.0652 2.87192L16.4676 6.47165Z" fill="white" style="fill:white;fill-opacity:1;"/>
</svg>
