<svg width="25" height="24" viewBox="0 0 25 24" fill="none" xmlns="http://www.w3.org/2000/svg">
<path fill-rule="evenodd" clip-rule="evenodd" d="M12.333 1.25C9.43351 1.25 7.08301 3.6005 7.08301 6.5C7.08301 9.39949 9.43351 11.75 12.333 11.75C15.2325 11.75 17.583 9.39949 17.583 6.5C17.583 3.6005 15.2325 1.25 12.333 1.25ZM8.58301 6.5C8.58301 4.42893 10.2619 2.75 12.333 2.75C14.4041 2.75 16.083 4.42893 16.083 6.5C16.083 8.57107 14.4041 10.25 12.333 10.25C10.2619 10.25 8.58301 8.57107 8.58301 6.5Z" fill="#9400D3" style="fill:#9400D3;fill:color(display-p3 0.5804 0.0000 0.8275);fill-opacity:1;"/>
<path fill-rule="evenodd" clip-rule="evenodd" d="M18.5619 15.0792C18.3992 14.9874 18.2556 14.9064 18.1393 14.8372C14.5853 12.7209 10.0811 12.7209 6.52705 14.8372C6.41073 14.9064 6.26706 14.9875 6.10439 15.0793C5.39158 15.4814 4.31407 16.0893 3.5759 16.8118C3.11424 17.2637 2.67558 17.8592 2.59584 18.5888C2.51103 19.3646 2.84949 20.0927 3.52851 20.7396C4.69996 21.8556 6.10574 22.75 7.92405 22.75H16.7423C18.5606 22.75 19.9664 21.8556 21.1379 20.7396C21.8169 20.0927 22.1553 19.3646 22.0705 18.5888C21.9908 17.8592 21.5521 17.2637 21.0905 16.8118C20.3523 16.0893 19.2747 15.4813 18.5619 15.0792ZM7.29447 16.126C10.3756 14.2913 14.2907 14.2913 17.3719 16.126C17.5398 16.226 17.7237 16.3303 17.9164 16.4397C18.6291 16.8439 19.4611 17.316 20.0412 17.8838C20.4013 18.2363 20.5549 18.5271 20.5794 18.7517C20.5989 18.9301 20.5538 19.2242 20.1032 19.6535C19.0673 20.6404 18.0148 21.25 16.7423 21.25H7.92405C6.65161 21.25 5.59903 20.6404 4.56318 19.6535C4.11255 19.2242 4.06746 18.9301 4.08695 18.7517C4.11151 18.5271 4.26502 18.2363 4.62515 17.8838C5.20524 17.316 6.03726 16.844 6.74987 16.4397C6.94254 16.3304 7.12661 16.226 7.29447 16.126Z" fill="#9400D3" style="fill:#9400D3;fill:color(display-p3 0.5804 0.0000 0.8275);fill-opacity:1;"/>
</svg>
